<svg width="30" height="30" viewBox="0 0 30 30" fill="none" xmlns="http://www.w3.org/2000/svg">
<path d="M5.46875 26.25L3.71875 24.5L16.5312 11.6875C16.1562 10.8125 16.1042 9.82292 16.375 8.71875C16.6458 7.61458 17.2396 6.625 18.1562 5.75C19.2604 4.64583 20.4896 4 21.8438 3.8125C23.1979 3.625 24.3021 3.95833 25.1562 4.8125C26.0104 5.66667 26.3438 6.77083 26.1562 8.125C25.9688 9.47917 25.3229 10.7083 24.2188 11.8125C23.3438 12.7292 22.3542 13.3229 21.25 13.5938C20.1458 13.8646 19.1562 13.8125 18.2812 13.4375L16.7188 15L26.2188 24.5L24.4688 26.25L14.9688 16.8125L5.46875 26.25ZM9.15625 15.5625L5.40625 11.8125C4.28125 10.6875 3.71875 9.34375 3.71875 7.78125C3.71875 6.21875 4.28125 4.875 5.40625 3.75L13.1562 11.5625L9.15625 15.5625Z" fill="black"/>
</svg>
