<svg width="35" height="35" viewBox="0 0 35 35" fill="none" xmlns="http://www.w3.org/2000/svg">
<path d="M17.5001 32.0834C15.4827 32.0834 13.5869 31.7006 11.8126 30.935C10.0383 30.1694 8.49487 29.1303 7.18237 27.8178C5.86987 26.5053 4.83081 24.9619 4.06519 23.1876C3.29956 21.4133 2.91675 19.5174 2.91675 17.5001C2.91675 15.4827 3.29956 13.5869 4.06519 11.8126C4.83081 10.0383 5.86987 8.49487 7.18237 7.18237C8.49487 5.86987 10.0383 4.83081 11.8126 4.06519C13.5869 3.29956 15.4827 2.91675 17.5001 2.91675C19.5174 2.91675 21.4133 3.29956 23.1876 4.06519C24.9619 4.83081 26.5053 5.86987 27.8178 7.18237C29.1303 8.49487 30.1694 10.0383 30.935 11.8126C31.7006 13.5869 32.0834 15.4827 32.0834 17.5001C32.0834 19.5174 31.7006 21.4133 30.935 23.1876C30.1694 24.9619 29.1303 26.5053 27.8178 27.8178C26.5053 29.1303 24.9619 30.1694 23.1876 30.935C21.4133 31.7006 19.5174 32.0834 17.5001 32.0834ZM17.5001 25.5209C18.5938 24.4272 19.5661 23.297 20.4167 22.1303C21.1459 21.1338 21.8143 20.04 22.422 18.849C23.0296 17.6581 23.3334 16.4792 23.3334 15.3126C23.3334 13.7084 22.7622 12.3352 21.6199 11.1928C20.4775 10.0504 19.1042 9.47925 17.5001 9.47925C15.8959 9.47925 14.5227 10.0504 13.3803 11.1928C12.2379 12.3352 11.6667 13.7084 11.6667 15.3126C11.6667 16.4792 11.9706 17.6581 12.5782 18.849C13.1858 20.04 13.8542 21.1338 14.5834 22.1303C15.4341 23.297 16.4063 24.4272 17.5001 25.5209ZM17.5001 17.5001C16.8924 17.5001 16.3759 17.2874 15.9506 16.8621C15.5253 16.4367 15.3126 15.9202 15.3126 15.3126C15.3126 14.7049 15.5253 14.1884 15.9506 13.7631C16.3759 13.3378 16.8924 13.1251 17.5001 13.1251C18.1077 13.1251 18.6242 13.3378 19.0496 13.7631C19.4749 14.1884 19.6876 14.7049 19.6876 15.3126C19.6876 15.9202 19.4749 16.4367 19.0496 16.8621C18.6242 17.2874 18.1077 17.5001 17.5001 17.5001Z" fill="black"/>
</svg>
