<svg width="40" height="40" viewBox="0 0 40 40" fill="none" xmlns="http://www.w3.org/2000/svg">
<path d="M19.9999 36.6668C29.2047 36.6668 36.6666 29.2049 36.6666 20.0002C36.6666 10.7954 29.2047 3.3335 19.9999 3.3335C10.7952 3.3335 3.33325 10.7954 3.33325 20.0002C3.33325 29.2049 10.7952 36.6668 19.9999 36.6668Z" stroke="#1E1E1E" stroke-width="1.6" stroke-linecap="round" stroke-linejoin="round"/>
<g clip-path="url(#clip0_2032_24336)">
<path d="M22.711 13.7777C23.5792 13.9471 24.3771 14.3717 25.0026 14.9972C25.6281 15.6227 26.0527 16.4206 26.2221 17.2888M22.711 10.2222C24.5148 10.4226 26.1969 11.2303 27.481 12.5128C28.7651 13.7954 29.575 15.4764 29.7777 17.2799M28.8888 24.3733V27.0399C28.8898 27.2875 28.8391 27.5325 28.7399 27.7594C28.6407 27.9862 28.4953 28.1898 28.3128 28.3572C28.1304 28.5245 27.9151 28.6519 27.6806 28.7312C27.446 28.8106 27.1976 28.84 26.951 28.8177C24.2157 28.5205 21.5883 27.5859 19.2799 26.0888C17.1322 24.7241 15.3113 22.9032 13.9466 20.7555C12.4443 18.4366 11.5094 15.7964 11.2177 13.0488C11.1955 12.803 11.2247 12.5553 11.3034 12.3214C11.3822 12.0875 11.5088 11.8726 11.6752 11.6903C11.8416 11.508 12.0442 11.3624 12.2699 11.2626C12.4957 11.1629 12.7397 11.1113 12.9866 11.1111H15.6532C16.0846 11.1068 16.5028 11.2596 16.8299 11.5409C17.157 11.8222 17.3706 12.2128 17.431 12.6399C17.5436 13.4933 17.7523 14.3313 18.0532 15.1377C18.1728 15.4559 18.1987 15.8016 18.1278 16.1341C18.0569 16.4665 17.8922 16.7716 17.6532 17.0133L16.5243 18.1422C17.7897 20.3675 19.6323 22.2101 21.8577 23.4755L22.9866 22.3466C23.2282 22.1076 23.5334 21.9429 23.8658 21.872C24.1982 21.8011 24.544 21.827 24.8621 21.9466C25.6686 22.2475 26.5065 22.4563 27.3599 22.5688C27.7917 22.6298 28.186 22.8472 28.4679 23.1799C28.7498 23.5126 28.8996 23.9373 28.8888 24.3733Z" stroke="#1E1E1E" stroke-width="2" stroke-linecap="round" stroke-linejoin="round"/>
</g>
<defs>
<clipPath id="clip0_2032_24336">
<rect width="21.3333" height="21.3333" fill="white" transform="translate(9.33325 9.3335)"/>
</clipPath>
</defs>
</svg>
