<svg width="35" height="35" viewBox="0 0 35 35" fill="none" xmlns="http://www.w3.org/2000/svg">
<path d="M17.5001 24.7916C17.9133 24.7916 18.2596 24.6518 18.5391 24.3723C18.8187 24.0928 18.9584 23.7464 18.9584 23.3333C18.9584 22.9201 18.8187 22.5737 18.5391 22.2942C18.2596 22.0147 17.9133 21.8749 17.5001 21.8749C17.0869 21.8749 16.7405 22.0147 16.461 22.2942C16.1815 22.5737 16.0417 22.9201 16.0417 23.3333C16.0417 23.7464 16.1815 24.0928 16.461 24.3723C16.7405 24.6518 17.0869 24.7916 17.5001 24.7916ZM17.5001 18.9583C17.9133 18.9583 18.2596 18.8185 18.5391 18.539C18.8187 18.2595 18.9584 17.9131 18.9584 17.4999C18.9584 17.0867 18.8187 16.7404 18.5391 16.4609C18.2596 16.1813 17.9133 16.0416 17.5001 16.0416C17.0869 16.0416 16.7405 16.1813 16.461 16.4609C16.1815 16.7404 16.0417 17.0867 16.0417 17.4999C16.0417 17.9131 16.1815 18.2595 16.461 18.539C16.7405 18.8185 17.0869 18.9583 17.5001 18.9583ZM17.5001 13.1249C17.9133 13.1249 18.2596 12.9852 18.5391 12.7056C18.8187 12.4261 18.9584 12.0798 18.9584 11.6666C18.9584 11.2534 18.8187 10.907 18.5391 10.6275C18.2596 10.348 17.9133 10.2083 17.5001 10.2083C17.0869 10.2083 16.7405 10.348 16.461 10.6275C16.1815 10.907 16.0417 11.2534 16.0417 11.6666C16.0417 12.0798 16.1815 12.4261 16.461 12.7056C16.7405 12.9852 17.0869 13.1249 17.5001 13.1249ZM29.1667 29.1666H5.83341C5.03133 29.1666 4.3447 28.881 3.77352 28.3098C3.20234 27.7386 2.91675 27.052 2.91675 26.2499V20.4166C3.71883 20.4166 4.40546 20.131 4.97664 19.5598C5.54782 18.9886 5.83341 18.302 5.83341 17.4999C5.83341 16.6978 5.54782 16.0112 4.97664 15.44C4.40546 14.8688 3.71883 14.5833 2.91675 14.5833V8.74992C2.91675 7.94784 3.20234 7.2612 3.77352 6.69002C4.3447 6.11884 5.03133 5.83325 5.83341 5.83325H29.1667C29.9688 5.83325 30.6555 6.11884 31.2266 6.69002C31.7978 7.2612 32.0834 7.94784 32.0834 8.74992V14.5833C31.2813 14.5833 30.5947 14.8688 30.0235 15.44C29.4523 16.0112 29.1667 16.6978 29.1667 17.4999C29.1667 18.302 29.4523 18.9886 30.0235 19.5598C30.5947 20.131 31.2813 20.4166 32.0834 20.4166V26.2499C32.0834 27.052 31.7978 27.7386 31.2266 28.3098C30.6555 28.881 29.9688 29.1666 29.1667 29.1666ZM29.1667 26.2499V22.5312C28.2674 21.9964 27.5565 21.2855 27.0339 20.3984C26.5114 19.5112 26.2501 18.5451 26.2501 17.4999C26.2501 16.4548 26.5114 15.4886 27.0339 14.6015C27.5565 13.7143 28.2674 13.0034 29.1667 12.4687V8.74992H5.83341V12.4687C6.73272 13.0034 7.44366 13.7143 7.96623 14.6015C8.4888 15.4886 8.75008 16.4548 8.75008 17.4999C8.75008 18.5451 8.4888 19.5112 7.96623 20.3984C7.44366 21.2855 6.73272 21.9964 5.83341 22.5312V26.2499H29.1667Z" fill="#090909"/>
</svg>
