<svg width="141" height="121" viewBox="0 0 141 121" fill="none" xmlns="http://www.w3.org/2000/svg">
<path d="M114.945 120.923L68.6607 74.6379C65.3912 80.1553 60.9466 84.5743 55.327 87.8949C49.7075 91.2156 43.526 92.8759 36.7825 92.8759C26.5652 92.8759 17.8804 89.2998 10.7282 82.1476C3.57608 74.9955 0 66.3107 0 56.0934C0 49.3499 1.66032 43.1684 4.98097 37.5488C8.30161 31.9293 12.7206 27.4847 18.238 24.2152L2.60543 8.58259L11.3413 0L123.528 112.34L114.945 120.923ZM122.608 37.7021L141 56.0934L112.953 84.14L93.4889 64.8292L101.152 59.1586L112.187 67.4346L123.681 56.0934L117.551 49.9629H78.6226L66.3618 37.7021H122.608ZM36.7825 80.615C41.9934 80.615 46.6167 79.2102 50.6526 76.4004C54.6885 73.5906 57.626 69.9379 59.4651 65.4422L50.8825 56.8597L43.4494 49.4265L36.0162 41.9934L27.4336 33.4108C22.938 35.2499 19.2853 38.1874 16.4755 42.2233C13.6657 46.2591 12.2608 50.8825 12.2608 56.0934C12.2608 62.8368 14.6619 68.6096 19.4641 73.4118C24.2662 78.214 30.0391 80.615 36.7825 80.615ZM36.7825 68.3542C33.4108 68.3542 30.5244 67.1537 28.1233 64.7526C25.7222 62.3515 24.5217 59.4651 24.5217 56.0934C24.5217 52.7216 25.7222 49.8352 28.1233 47.4341C30.5244 45.0331 33.4108 43.8325 36.7825 43.8325C40.1543 43.8325 43.0407 45.0331 45.4417 47.4341C47.8428 49.8352 49.0434 52.7216 49.0434 56.0934C49.0434 59.4651 47.8428 62.3515 45.4417 64.7526C43.0407 67.1537 40.1543 68.3542 36.7825 68.3542Z" fill="black"/>
</svg>
