<svg width="35" height="35" viewBox="0 0 35 35" fill="none" xmlns="http://www.w3.org/2000/svg">
<path d="M7.66667 26.8333H11.5V17.25H7.66667V26.8333ZM23 26.8333H26.8333V7.66667H23V26.8333ZM15.3333 26.8333H19.1667V21.0833H15.3333V26.8333ZM15.3333 17.25H19.1667V13.4167H15.3333V17.25ZM3.83333 34.5C2.77917 34.5 1.87674 34.1247 1.12604 33.374C0.375347 32.6233 0 31.7208 0 30.6667V3.83333C0 2.77917 0.375347 1.87674 1.12604 1.12604C1.87674 0.375347 2.77917 0 3.83333 0H30.6667C31.7208 0 32.6233 0.375347 33.374 1.12604C34.1247 1.87674 34.5 2.77917 34.5 3.83333V30.6667C34.5 31.7208 34.1247 32.6233 33.374 33.374C32.6233 34.1247 31.7208 34.5 30.6667 34.5H3.83333ZM3.83333 30.6667H30.6667V3.83333H3.83333V30.6667Z" fill="#0D47A1"/>
</svg>
