<svg width="35" height="35" viewBox="0 0 35 35" fill="none" xmlns="http://www.w3.org/2000/svg">
<path d="M3.1946 34.5C2.31613 34.5 1.564 34.1873 0.938208 33.5618C0.312736 32.936 0 32.1839 0 31.3054V3.1946C0 2.31613 0.312736 1.564 0.938208 0.938209C1.564 0.312737 2.31613 0 3.1946 0H31.3054C32.1839 0 32.936 0.312737 33.5618 0.938209C34.1873 1.564 34.5 2.31613 34.5 3.1946V31.3054C34.5 32.1839 34.1873 32.936 33.5618 33.5618C32.936 34.1873 32.1839 34.5 31.3054 34.5H3.1946ZM13.7363 31.3054V18.8471H3.1946V31.3054H13.7363ZM16.9304 31.3054H31.3054V18.8471H16.9304V31.3054ZM3.1946 15.6529H31.3054V3.1946H3.1946V15.6529Z" fill="#0D47A1"/>
</svg>
