<svg width="27" height="27" viewBox="0 0 27 27" fill="none" xmlns="http://www.w3.org/2000/svg">
<path d="M2.43068 26.25C1.76227 26.25 1.19 26.012 0.713854 25.5361C0.237951 25.06 0 24.4877 0 23.8193V2.43068C0 1.76227 0.237951 1.19 0.713854 0.713855C1.19 0.237952 1.76227 0 2.43068 0H23.8193C24.4877 0 25.06 0.237952 25.5361 0.713855C26.012 1.19 26.25 1.76227 26.25 2.43068V23.8193C26.25 24.4877 26.012 25.06 25.5361 25.5361C25.06 26.012 24.4877 26.25 23.8193 26.25H2.43068ZM10.4515 23.8193V14.3402H2.43068V23.8193H10.4515ZM12.8818 23.8193H23.8193V14.3402H12.8818V23.8193ZM2.43068 11.9098H23.8193V2.43068H2.43068V11.9098Z" fill="#FF6835"/>
</svg>
