<svg width="35" height="35" viewBox="0 0 35 35" fill="none" xmlns="http://www.w3.org/2000/svg">
<path d="M6.80568 30.625C6.13727 30.625 5.565 30.387 5.08885 29.9111C4.61295 29.435 4.375 28.8627 4.375 28.1943V6.80568C4.375 6.13727 4.61295 5.565 5.08885 5.08885C5.565 4.61295 6.13727 4.375 6.80568 4.375H28.1943C28.8627 4.375 29.435 4.61295 29.9111 5.08885C30.387 5.565 30.625 6.13727 30.625 6.80568V28.1943C30.625 28.8627 30.387 29.435 29.9111 29.9111C29.435 30.387 28.8627 30.625 28.1943 30.625H6.80568ZM14.8265 28.1943V18.7152H6.80568V28.1943H14.8265ZM17.2568 28.1943H28.1943V18.7152H17.2568V28.1943ZM6.80568 16.2848H28.1943V6.80568H6.80568V16.2848Z" fill="black"/>
</svg>
