<svg width="35" height="44" viewBox="0 0 35 44" fill="none" xmlns="http://www.w3.org/2000/svg">
<path d="M21.1667 2H5.83333C4.81667 2 3.84165 2.42143 3.12276 3.17157C2.40387 3.92172 2 4.93913 2 6V38C2 39.0609 2.40387 40.0783 3.12276 40.8284C3.84165 41.5786 4.81667 42 5.83333 42H28.8333C29.85 42 30.825 41.5786 31.5439 40.8284C32.2628 40.0783 32.6667 39.0609 32.6667 38V14M21.1667 2L32.6667 14M21.1667 2V14H32.6667M25 24H9.66667M25 32H9.66667M13.5 16H9.66667" stroke="#0D47A1" stroke-width="4" stroke-linecap="round" stroke-linejoin="round"/>
</svg>
