<svg width="48" height="48" viewBox="0 0 48 48" fill="none" xmlns="http://www.w3.org/2000/svg">
<g clip-path="url(#clip0_1989_23327)">
<path d="M2.66526 14.4763C0.967263 11.0443 -2.40074 2.53833 2.39926 0.300332C3.1129 0.00325772 3.89875 -0.0749283 4.65694 0.075711C5.41512 0.22635 6.11139 0.599012 6.65726 1.14633L16.5773 11.7463C16.7647 11.9304 16.914 12.1497 17.0166 12.3915C17.1193 12.6333 17.1733 12.893 17.1757 13.1557C17.178 13.4184 17.1285 13.6789 17.0302 13.9225C16.9318 14.1661 16.7864 14.3879 16.6023 14.5753C16.4181 14.7627 16.1989 14.912 15.9571 15.0147C15.7153 15.1174 15.4556 15.1714 15.1929 15.1737C14.9302 15.1761 14.6697 15.1266 14.4261 15.0282C14.1825 14.9298 13.9607 14.7844 13.7733 14.6003L3.99926 4.16033C4.23726 11.7143 8.68526 17.3603 13.6813 23.0383C14.0648 23.407 14.2861 23.9129 14.2966 24.4447C14.3071 24.9766 14.1059 25.4908 13.7373 25.8743C13.3686 26.2578 12.8627 26.4792 12.3309 26.4897C11.799 26.5002 11.2848 26.299 10.9013 25.9303C7.61828 22.5292 4.84425 18.6713 2.66526 14.4763ZM36.0093 32.4003C35.7368 32.1018 35.3964 31.8733 35.017 31.734C34.6376 31.5948 34.2302 31.5489 33.8293 31.6003C31.5092 31.9118 29.1491 31.7138 26.9133 31.0203C26.5709 30.9193 26.2075 30.9132 25.8619 31.0027C25.5164 31.0922 25.2016 31.2738 24.9513 31.5283C21.9633 36.0403 31.4993 35.7543 33.5753 35.6883L44.5413 47.3663C44.7213 47.5578 44.9373 47.7119 45.1769 47.8199C45.4165 47.9279 45.675 47.9877 45.9377 47.9957C46.2004 48.0038 46.4622 47.9601 46.708 47.867C46.9537 47.7739 47.1788 47.6334 47.3703 47.4533C47.5617 47.2733 47.7159 47.0573 47.8239 46.8177C47.9319 46.5781 47.9916 46.3195 47.9997 46.0569C48.0077 45.7942 47.964 45.5324 47.8709 45.2866C47.7779 45.0409 47.6373 44.8158 47.4573 44.6243L36.0093 32.4003ZM29.9993 28.0003C31.3125 28.0022 32.6131 27.7449 33.8267 27.2431C35.0402 26.7414 36.1428 26.005 37.0713 25.0763L47.4133 14.7323C47.5992 14.5466 47.7468 14.3261 47.8475 14.0834C47.9482 13.8407 48.0002 13.5805 48.0004 13.3177C48.0006 13.055 47.949 12.7947 47.8486 12.5518C47.7482 12.309 47.601 12.0883 47.4153 11.9023C47.2296 11.7164 47.0091 11.5688 46.7664 11.4681C46.5236 11.3673 46.2635 11.3154 46.0007 11.3152C45.7379 11.315 45.4776 11.3666 45.2348 11.467C44.9919 11.5674 44.7712 11.7146 44.5853 11.9003L34.2433 22.2443C33.365 23.115 32.2391 23.6929 31.0197 23.8992C29.8003 24.1054 28.547 23.9298 27.4313 23.3963L41.4133 9.41433C41.6043 9.22984 41.7566 9.00915 41.8615 8.76514C41.9663 8.52113 42.0215 8.25869 42.0238 7.99313C42.0261 7.72758 41.9755 7.46422 41.8749 7.21842C41.7743 6.97263 41.6258 6.74933 41.4381 6.56154C41.2503 6.37376 41.027 6.22525 40.7812 6.12469C40.5354 6.02413 40.272 5.97352 40.0065 5.97583C39.7409 5.97814 39.4785 6.03331 39.2345 6.13813C38.9904 6.24295 38.7698 6.39531 38.5853 6.58633L24.5993 20.5683C24.0658 19.4526 23.8902 18.1993 24.0964 16.9799C24.3026 15.7605 24.8806 14.6346 25.7513 13.7563L36.0993 3.41433C36.4636 3.03713 36.6652 2.53192 36.6606 2.00753C36.6561 1.48314 36.4457 0.981511 36.0749 0.610694C35.7041 0.239878 35.2025 0.0295403 34.6781 0.0249835C34.1537 0.0204267 33.6485 0.222015 33.2713 0.586332L22.9273 10.9283C21.3007 12.5604 20.2864 14.7031 20.0551 16.9956C19.8237 19.2881 20.3896 21.5903 21.6573 23.5143L0.585263 44.5863C0.220947 44.9635 0.0193578 45.4687 0.0239147 45.9931C0.0284715 46.5175 0.238809 47.0192 0.609626 47.39C0.980442 47.7608 1.48207 47.9711 2.00646 47.9757C2.53085 47.9802 3.03606 47.7786 3.41326 47.4143L24.4853 26.3423C26.121 27.4236 28.0385 28.0002 29.9993 28.0003Z" fill="#0D47A1"/>
</g>
<defs>
<clipPath id="clip0_1989_23327">
<rect width="48" height="48" fill="white"/>
</clipPath>
</defs>
</svg>
