<svg width="30" height="30" viewBox="0 0 30 30" fill="none" xmlns="http://www.w3.org/2000/svg">
<path d="M11.0348 29.1667L10.3542 24.5485C9.94097 24.3946 9.51769 24.1922 9.08432 23.9411C8.65096 23.6898 8.26 23.4264 7.91146 23.151L3.59734 25.0713L0 18.776L3.87698 15.9079C3.83639 15.7054 3.81208 15.4847 3.80406 15.2458C3.7958 15.0066 3.79167 14.7858 3.79167 14.5833C3.79167 14.3809 3.7958 14.1601 3.80406 13.9209C3.81208 13.682 3.83639 13.4613 3.87698 13.2588L0 10.3906L3.59734 4.09537L7.91146 6.01563C8.26 5.74024 8.65302 5.47689 9.09052 5.22557C9.52802 4.9745 9.94924 4.78005 10.3542 4.64224L11.0348 0H18.1807L18.8614 4.61818C19.2745 4.77203 19.7018 4.97049 20.1432 5.21354C20.5849 5.4566 20.9718 5.72396 21.3041 6.01563L25.6182 4.09537L29.2155 10.3906L25.3385 13.2099C25.3791 13.4287 25.4034 13.6577 25.4115 13.8968C25.4197 14.1357 25.4239 14.3646 25.4239 14.5833C25.4239 14.8021 25.4197 15.0269 25.4115 15.2578C25.4034 15.4887 25.3751 15.7135 25.3265 15.9323L29.2031 18.776L25.6061 25.0713L21.3041 23.151C20.9555 23.4264 20.5666 23.6938 20.1374 23.9531C19.7079 24.2125 19.2826 24.4109 18.8614 24.5485L18.1807 29.1667H11.0348ZM13.0521 26.736H16.151L16.6615 22.7256C17.4475 22.5311 18.1869 22.2334 18.8796 21.8323C19.5723 21.4313 20.2022 20.9473 20.7692 20.3802L24.5489 21.9964L25.9948 19.4203L22.6651 16.9531C22.7703 16.5642 22.8514 16.1733 22.9082 15.7803C22.9649 15.3875 22.9932 14.9885 22.9932 14.5833C22.9932 14.1782 22.9689 13.7792 22.9203 13.3864C22.8717 12.9934 22.7866 12.6024 22.6651 12.2135L25.9948 9.74641L24.5489 7.17026L20.7692 8.79849C20.2182 8.19085 19.6005 7.6825 18.916 7.27344C18.2314 6.86438 17.4798 6.58693 16.6615 6.44109L16.1634 2.43068H13.0645L12.5541 6.44109C11.752 6.61925 11.0046 6.90885 10.3119 7.3099C9.61917 7.71094 8.99731 8.20313 8.4463 8.78646L4.66667 7.17026L3.22073 9.74641L6.55047 12.2015C6.44523 12.5984 6.36417 12.9913 6.30729 13.3802C6.25066 13.7691 6.22234 14.1701 6.22234 14.5833C6.22234 14.9885 6.25066 15.3855 6.30729 15.7744C6.36417 16.1633 6.44523 16.5562 6.55047 16.9531L3.22073 19.4203L4.66667 21.9964L8.4463 20.3682C9.01335 20.9432 9.64323 21.4313 10.3359 21.8323C11.0286 22.2334 11.768 22.5311 12.5541 22.7256L13.0521 26.736ZM14.6322 19.4443C15.977 19.4443 17.1234 18.9704 18.0713 18.0224C19.0192 17.0745 19.4932 15.9282 19.4932 14.5833C19.4932 13.2385 19.0192 12.0921 18.0713 11.1442C17.1234 10.1963 15.977 9.72234 14.6322 9.72234C13.2791 9.72234 12.1307 10.1963 11.1869 11.1442C10.2428 12.0921 9.77083 13.2385 9.77083 14.5833C9.77083 15.9282 10.2428 17.0745 11.1869 18.0224C12.1307 18.9704 13.2791 19.4443 14.6322 19.4443Z" fill="#FF6835"/>
</svg>
