<svg width="35" height="35" viewBox="0 0 35 35" fill="none" xmlns="http://www.w3.org/2000/svg">
<path d="M13.9274 32.0837L13.2467 27.4655C12.8336 27.3116 12.4103 27.1092 11.9769 26.8581C11.5435 26.6068 11.1526 26.3434 10.804 26.068L6.48992 27.9883L2.89258 21.693L6.76956 18.8249C6.72897 18.6224 6.70466 18.4017 6.69664 18.1628C6.68838 17.9236 6.68425 17.7028 6.68425 17.5003C6.68425 17.2979 6.68838 17.077 6.69664 16.8379C6.70466 16.599 6.72897 16.3783 6.76956 16.1758L2.89258 13.3076L6.48992 7.01236L10.804 8.93262C11.1526 8.65724 11.5456 8.39389 11.9831 8.14257C12.4206 7.89149 12.8418 7.69705 13.2467 7.55923L13.9274 2.91699H21.0733L21.7539 7.53517C22.1671 7.68902 22.5944 7.88748 23.0358 8.13053C23.4774 8.37359 23.8644 8.64095 24.1966 8.93262L28.5108 7.01236L32.1081 13.3076L28.2311 16.1269C28.2717 16.3457 28.296 16.5746 28.304 16.8138C28.3123 17.0527 28.3164 17.2816 28.3164 17.5003C28.3164 17.7191 28.3123 17.9439 28.304 18.1748C28.296 18.4057 28.2677 18.6305 28.2191 18.8493L32.0957 21.693L28.4987 27.9883L24.1966 26.068C23.8481 26.3434 23.4592 26.6108 23.03 26.8701C22.6005 27.1295 22.1751 27.3279 21.7539 27.4655L21.0733 32.0837H13.9274ZM15.9447 29.653H19.0436L19.554 25.6426C20.3401 25.4481 21.0795 25.1504 21.7722 24.7493C22.4649 24.3483 23.0947 23.8643 23.6618 23.2972L27.4414 24.9134L28.8874 22.3373L25.5576 19.8701C25.6629 19.4812 25.7439 19.0903 25.8008 18.6973C25.8574 18.3045 25.8858 17.9055 25.8858 17.5003C25.8858 17.0952 25.8615 16.6962 25.8128 16.3034C25.7642 15.9104 25.6792 15.5194 25.5576 15.1305L28.8874 12.6634L27.4414 10.0873L23.6618 11.7155C23.1108 11.1078 22.4931 10.5995 21.8086 10.1904C21.1239 9.78137 20.3724 9.50392 19.554 9.35809L19.056 5.34767H15.9571L15.4466 9.35809C14.6446 9.53625 13.8972 9.82585 13.2045 10.2269C12.5117 10.6279 11.8899 11.1201 11.3389 11.7035L7.55925 10.0873L6.11331 12.6634L9.44305 15.1185C9.3378 15.5154 9.25675 15.9083 9.19987 16.2972C9.14324 16.6861 9.11492 17.0871 9.11492 17.5003C9.11492 17.9055 9.14324 18.3025 9.19987 18.6914C9.25675 19.0803 9.3378 19.4732 9.44305 19.8701L6.11331 22.3373L7.55925 24.9134L11.3389 23.2852C11.9059 23.8602 12.5358 24.3483 13.2285 24.7493C13.9212 25.1504 14.6606 25.4481 15.4466 25.6426L15.9447 29.653ZM17.5248 22.3613C18.8696 22.3613 20.016 21.8874 20.9639 20.9394C21.9118 19.9915 22.3858 18.8452 22.3858 17.5003C22.3858 16.1555 21.9118 15.0091 20.9639 14.0612C20.016 13.1133 18.8696 12.6393 17.5248 12.6393C16.1717 12.6393 15.0232 13.1133 14.0795 14.0612C13.1354 15.0091 12.6634 16.1555 12.6634 17.5003C12.6634 18.8452 13.1354 19.9915 14.0795 20.9394C15.0232 21.8874 16.1717 22.3613 17.5248 22.3613Z" fill="black"/>
</svg>
